<svg width="14" height="13" viewBox="0 0 14 13" fill="none" xmlns="http://www.w3.org/2000/svg">
<path d="M13.1891 4.51714L9.22187 3.94058L7.44844 0.345269C7.4 0.246832 7.32031 0.167144 7.22187 0.118707C6.975 -0.00316805 6.675 0.0983945 6.55156 0.345269L4.77812 3.94058L0.810936 4.51714C0.701561 4.53277 0.601561 4.58433 0.524999 4.66246C0.432439 4.75759 0.381434 4.88558 0.383192 5.0183C0.38495 5.15103 0.439327 5.27762 0.534374 5.37027L3.40469 8.16871L2.72656 12.1203C2.71066 12.2122 2.72083 12.3067 2.75592 12.3932C2.79102 12.4796 2.84963 12.5545 2.92511 12.6093C3.00059 12.6641 3.08992 12.6967 3.18297 12.7033C3.27602 12.71 3.36907 12.6904 3.45156 12.6468L7 10.7812L10.5484 12.6468C10.6453 12.6984 10.7578 12.7156 10.8656 12.6968C11.1375 12.65 11.3203 12.3921 11.2734 12.1203L10.5953 8.16871L13.4656 5.37027C13.5437 5.29371 13.5953 5.19371 13.6109 5.08433C13.6531 4.81089 13.4625 4.55777 13.1891 4.51714Z" fill="#E3AD07"/>
</svg>
